<svg width="2037" height="568" viewBox="0 0 2037 568" fill="none" xmlns="http://www.w3.org/2000/svg">
<path opacity="0.15" d="M248.648 248.189C248.648 347.178 452.328 407.286 296.79 407.286C200.998 407.286 91.3767 384.507 40.5 338C8.76717 308.993 15.162 266.075 15.162 228.05C15.162 129.061 -19.9019 116.321 128.176 163.916C184.962 182.168 248.648 207.912 248.648 248.189Z" fill="white"/>
<path fill-rule="evenodd" clip-rule="evenodd" d="M456.807 509.63C460.766 516.398 458.49 525.093 451.722 529.052C407.083 555.165 350.932 567.624 296.195 567.499C241.501 567.374 186.749 554.678 145.042 528.87C138.375 524.745 136.315 515.995 140.44 509.328C144.566 502.661 153.315 500.601 159.983 504.726C196.154 527.109 245.409 538.99 296.26 539.106C347.068 539.222 397.998 527.586 437.385 504.545C444.153 500.586 452.849 502.862 456.807 509.63Z" fill="white"/>
<path fill-rule="evenodd" clip-rule="evenodd" d="M184.962 29.3751C137.61 34.0235 97.733 41.4414 69.4368 50.4682C54.1097 55.3577 43.0046 60.4648 36.0282 65.3198C32.5708 67.7259 30.6219 69.7323 29.6197 71.1533C29.1428 71.8294 28.9431 72.2839 28.863 72.5117C28.8233 72.6249 28.8093 72.6925 28.8046 72.7196C28.802 72.7341 28.8012 72.7424 28.8009 72.7455L28.8006 72.75L28.8009 72.7546C28.8012 72.7579 28.8021 72.7665 28.8048 72.7817C28.8098 72.81 28.8246 72.8803 28.8665 72.9981C28.951 73.2353 29.161 73.7058 29.6598 74.4032C30.7079 75.8686 32.7358 77.9234 36.3115 80.3759C43.5209 85.3208 54.9651 90.4983 70.7036 95.4325C98.9358 104.284 138.336 111.548 184.962 116.125V29.3751ZM213.355 118.511V18.244C213.355 7.48305 204.111 -0.852066 193.516 0.0697078C140.229 4.70566 94.0456 12.8151 60.8076 23.4183C44.2836 28.6897 30.1296 34.8331 19.8098 42.0148C9.96622 48.8652 0.407715 58.9819 0.407715 72.75C0.407715 86.7023 10.2147 96.9062 20.2516 103.79C30.8026 111.027 45.2847 117.219 62.2098 122.525C96.2534 133.198 143.534 141.304 197.987 145.81C229.324 148.403 263.2 149.816 298.533 149.816C377.653 149.816 449.713 142.726 502.371 131.067C528.584 125.262 550.763 118.16 566.734 109.799C574.704 105.626 581.826 100.784 587.12 95.0556C592.483 89.2526 596.659 81.7359 596.659 72.75C596.659 59.1537 587.329 49.1191 577.664 42.3006C567.557 35.1702 553.706 29.0719 537.551 23.8338C505.055 13.297 459.883 5.18781 407.678 0.437063C397.057 -0.529473 387.768 7.81616 387.768 18.6047V60.5819C387.768 68.4224 394.124 74.7783 401.965 74.7783C409.805 74.7783 416.161 68.4224 416.161 60.5819V29.7819C462.405 34.519 501.252 41.9121 528.793 50.8424C543.741 55.6892 554.534 60.73 561.297 65.5009C564.646 67.8635 566.522 69.825 567.483 71.2049C567.94 71.8614 568.131 72.3013 568.207 72.5206C568.244 72.6297 568.258 72.6947 568.262 72.7207C568.263 72.7277 568.264 72.7332 568.265 72.7374C568.265 72.7415 568.266 72.7442 568.266 72.7457L568.266 72.75L568.266 72.7518L568.265 72.7589C568.264 72.766 568.262 72.7848 568.254 72.8173C568.24 72.8796 568.2 73.0247 568.092 73.2598C567.869 73.7464 567.361 74.6027 566.268 75.7854C563.997 78.2425 559.963 81.2956 553.565 84.6447C540.801 91.3268 521.4 97.7723 496.232 103.345C446.128 114.44 376.224 121.424 298.533 121.424C268.808 121.424 240.188 120.401 213.355 118.511Z" fill="white"/>
<path fill-rule="evenodd" clip-rule="evenodd" d="M14.6054 137.649C22.4459 137.649 28.8016 144.005 28.8014 151.846C28.8003 184.181 28.8006 211.766 28.8009 239.787C28.801 252.492 28.8011 265.286 28.8011 278.653C28.8011 305.191 53.1834 333.878 103.628 356.748C152.777 379.032 221.674 393.185 298.533 393.185C375.393 393.185 444.29 379.032 493.439 356.748C543.883 333.878 568.266 305.191 568.266 278.653C568.266 270.812 574.622 264.456 582.462 264.456C590.303 264.456 596.659 270.812 596.659 278.653C596.659 323.21 557.481 358.887 505.164 382.607C451.551 406.914 378.483 421.578 298.533 421.578C218.584 421.578 145.516 406.914 91.9034 382.607C39.5855 358.887 0.408182 323.21 0.408182 278.653C0.408182 265.286 0.408064 252.492 0.407946 239.788C0.407687 211.767 0.407431 184.181 0.408459 151.845C0.408709 144.004 6.76488 137.649 14.6054 137.649Z" fill="white"/>
<path d="M854.681 69.2205C854.681 66.0351 855.435 63.2688 856.944 60.9216C858.453 58.4068 860.632 57.1494 863.482 57.1494H967.847C970.697 57.1494 972.876 58.323 974.385 60.6702C975.894 63.0173 976.648 65.7836 976.648 68.969C976.648 72.4897 975.81 75.5075 974.134 78.0223C972.625 80.3694 970.529 81.543 967.847 81.543H929.119V232.18C929.119 234.862 927.778 237.042 925.095 238.718C922.413 240.227 919.311 240.981 915.79 240.981C912.102 240.981 908.917 240.227 906.234 238.718C903.719 237.042 902.462 234.862 902.462 232.18V81.543H863.482C860.8 81.543 858.621 80.3694 856.944 78.0223C855.435 75.5075 854.681 72.5735 854.681 69.2205Z" fill="white"/>
<path d="M1160.15 232.18V65.6998C1160.15 62.8496 1161.41 60.754 1163.92 59.4127C1166.61 57.9039 1169.79 57.1494 1173.48 57.1494C1177.17 57.1494 1180.27 57.9039 1182.79 59.4127C1185.47 60.754 1186.81 62.8496 1186.81 65.6998V232.18C1186.81 234.862 1185.47 237.042 1182.79 238.718C1180.27 240.227 1177.17 240.981 1173.48 240.981C1169.96 240.981 1166.86 240.227 1164.18 238.718C1161.49 237.042 1160.15 234.862 1160.15 232.18Z" fill="white"/>
<path d="M1355.87 232.18V70.4779C1355.87 65.9512 1357.13 62.5982 1359.65 60.4187C1362.16 58.2392 1365.35 57.1494 1369.2 57.1494C1374.06 57.1494 1378 58.2392 1381.02 60.4187C1384.21 62.4305 1387.31 66.3704 1390.33 72.2382L1425.53 138.88L1461.24 72.2382C1464.26 66.3704 1467.28 62.4305 1470.3 60.4187C1473.32 58.2392 1477.26 57.1494 1482.12 57.1494C1485.97 57.1494 1489.16 58.2392 1491.67 60.4187C1494.19 62.5982 1495.45 65.9512 1495.45 70.4779V232.18C1495.45 234.862 1494.1 237.042 1491.42 238.718C1488.91 240.227 1485.81 240.981 1482.12 240.981C1478.6 240.981 1475.5 240.227 1472.81 238.718C1470.13 237.042 1468.79 234.862 1468.79 232.18V111.469L1435.09 173.836C1432.58 177.86 1429.31 179.872 1425.28 179.872C1421.26 179.872 1418.24 177.86 1416.23 173.836L1382.53 109.96V232.18C1382.53 234.862 1381.19 237.042 1378.51 238.718C1375.99 240.227 1372.89 240.981 1369.2 240.981C1365.68 240.981 1362.58 240.227 1359.9 238.718C1357.22 237.042 1355.87 234.862 1355.87 232.18Z" fill="white"/>
<path d="M1641.69 232.18V65.9512C1641.69 63.2688 1642.86 61.1731 1645.21 59.6642C1647.56 57.9877 1650.32 57.1494 1653.51 57.1494H1743.03C1745.88 57.1494 1748.06 58.323 1749.57 60.6702C1751.08 63.0173 1751.84 65.6998 1751.84 68.7175C1751.84 72.0706 1751 74.9207 1749.32 77.2678C1747.81 79.615 1745.72 80.7886 1743.03 80.7886H1668.34V138.377H1707.07C1709.75 138.377 1711.85 139.467 1713.36 141.647C1715.04 143.659 1715.87 146.173 1715.87 149.191C1715.87 151.874 1715.12 154.305 1713.61 156.484C1712.1 158.496 1709.92 159.502 1707.07 159.502H1668.34V217.342H1743.03C1745.72 217.342 1747.81 218.516 1749.32 220.863C1751 223.21 1751.84 226.06 1751.84 229.413C1751.84 232.431 1751.08 235.113 1749.57 237.461C1748.06 239.808 1745.88 240.981 1743.03 240.981H1653.51C1650.32 240.981 1647.56 240.227 1645.21 238.718C1642.86 237.042 1641.69 234.862 1641.69 232.18Z" fill="white"/>
<path d="M1887.77 188.925C1887.77 177.525 1890.88 167.465 1897.08 158.747C1903.28 149.862 1910.99 142.988 1920.22 138.126C1914.18 131.252 1909.57 124.714 1906.38 118.511C1903.2 112.307 1901.61 105.266 1901.61 97.3862C1901.61 83.6387 1906.38 72.825 1915.94 64.9453C1925.5 56.8979 1937.4 52.8743 1951.65 52.8743C1965.06 52.8743 1976.13 55.9759 1984.85 62.179C1993.56 68.3822 1997.92 74.4177 1997.92 80.2856C1997.92 83.471 1996.58 86.3211 1993.9 88.8359C1991.38 91.3507 1988.53 92.6081 1985.35 92.6081C1982.83 92.6081 1980.24 91.0992 1977.55 88.0815C1975.04 85.0637 1971.69 82.0459 1967.49 79.0282C1963.47 76.0104 1958.36 74.5015 1952.15 74.5015C1944.61 74.5015 1938.57 76.681 1934.05 81.04C1929.52 85.2314 1927.26 91.0992 1927.26 98.6436C1927.26 102.332 1927.93 106.02 1929.27 109.709C1930.61 113.229 1932.79 117.086 1935.81 121.277C1938.99 125.301 1941.51 128.318 1943.35 130.33L1952.15 140.138L1996.67 187.919C2000.19 179.704 2002.37 166.962 2003.2 149.694C2003.54 146.676 2004.55 144.497 2006.22 143.156C2007.9 141.647 2010.92 140.892 2015.27 140.892C2019.63 140.892 2022.57 141.898 2024.08 143.91C2025.59 145.922 2026.34 149.191 2026.34 153.718C2026.34 171.992 2021.9 189.009 2013.01 204.768L2034.39 227.401C2035.56 228.743 2036.15 230.335 2036.15 232.18C2036.15 234.862 2034.89 237.377 2032.38 239.724C2029.86 241.903 2027.01 242.993 2023.83 242.993C2021.48 242.993 2019.21 241.903 2017.04 239.724L1999.68 221.617C1986.27 236.203 1969.34 243.496 1948.88 243.496C1930.61 243.496 1915.86 238.215 1904.62 227.653C1893.39 216.923 1887.77 204.014 1887.77 188.925ZM1914.68 186.662C1914.68 196.218 1917.95 204.181 1924.49 210.552C1931.2 216.923 1940.42 220.109 1952.15 220.109C1965.9 220.109 1976.46 215.163 1983.84 205.271L1935.3 153.969C1921.56 163.358 1914.68 174.255 1914.68 186.662Z" fill="white"/>
<path d="M858.451 505.361C858.451 502.175 859.625 498.99 861.972 495.804C864.319 492.619 867.002 491.026 870.019 491.026C871.864 491.026 874.043 492.116 876.558 494.296C879.24 496.307 881.839 498.571 884.354 501.085C886.869 503.433 890.641 505.696 895.67 507.875C900.868 509.887 906.652 510.893 913.023 510.893C922.579 510.893 930.207 508.63 935.907 504.103C941.775 499.577 944.709 492.954 944.709 484.236C944.709 476.189 941.859 469.483 936.159 464.118C930.626 458.753 923.836 454.478 915.789 451.292C907.909 448.107 899.946 444.67 891.898 440.982C883.851 437.293 876.977 431.761 871.277 424.384C865.744 417.007 862.978 407.786 862.978 396.721C862.978 387.836 864.655 380.124 868.008 373.585C871.528 367.047 876.223 362.017 882.091 358.496C887.958 354.976 894.078 352.461 900.449 350.952C906.987 349.275 913.861 348.437 921.07 348.437C925.597 348.437 930.291 348.772 935.153 349.443C940.182 349.946 945.128 350.868 949.99 352.209C954.852 353.55 958.876 355.479 962.061 357.993C965.247 360.508 966.839 363.358 966.839 366.544C966.839 369.729 965.833 372.914 963.822 376.1C961.81 379.285 959.127 380.878 955.774 380.878C954.098 380.878 951.834 380.124 948.984 378.615C946.134 376.938 942.278 375.345 937.416 373.837C932.722 372.16 927.273 371.322 921.07 371.322C911.514 371.322 903.885 373.25 898.185 377.106C892.485 380.794 889.635 386.494 889.635 394.206C889.635 399.236 891.144 403.595 894.162 407.283C897.179 410.804 901.035 413.738 905.73 416.085C910.592 418.432 915.957 420.779 921.824 423.127C927.692 425.306 933.476 427.905 939.177 430.923C945.044 433.94 950.325 437.461 955.02 441.485C959.882 445.341 963.822 450.706 966.839 457.579C969.857 464.453 971.366 472.417 971.366 481.47C971.366 498.906 966.085 512.234 955.523 521.455C945.128 530.509 931.297 535.035 914.029 535.035C898.604 535.035 885.444 531.85 874.546 525.479C863.816 518.941 858.451 512.234 858.451 505.361Z" fill="white"/>
<path d="M1122.18 524.222V357.742C1122.18 355.395 1123.11 353.383 1124.95 351.706C1126.96 350.03 1129.48 349.192 1132.49 349.192H1181.53C1198.3 349.192 1211.63 353.634 1221.52 362.52C1231.58 371.406 1236.61 385.405 1236.61 404.517V406.529C1236.61 425.641 1231.41 439.724 1221.01 448.778C1210.79 457.663 1197.12 462.106 1180.02 462.106H1148.84V524.222C1148.84 526.904 1147.5 529.084 1144.82 530.76C1142.3 532.269 1139.2 533.023 1135.51 533.023C1131.99 533.023 1128.89 532.269 1126.21 530.76C1123.52 529.084 1122.18 526.904 1122.18 524.222ZM1148.84 440.982H1180.02C1189.58 440.982 1196.96 438.299 1202.15 432.934C1207.35 427.402 1209.95 419.187 1209.95 408.289V405.272C1209.95 394.374 1207.35 386.243 1202.15 380.878C1196.96 375.513 1189.58 372.831 1180.02 372.831H1148.84V440.982Z" fill="white"/>
<path d="M1362.31 521.958C1362.31 520.952 1362.39 520.198 1362.56 519.695L1412.6 356.736C1414.61 350.7 1420.23 347.683 1429.45 347.683C1438.84 347.683 1444.54 350.7 1446.55 356.736L1496.34 519.695C1496.68 520.701 1496.85 521.455 1496.85 521.958C1496.85 524.976 1495 527.575 1491.31 529.754C1487.79 531.934 1484.02 533.023 1480 533.023C1475.14 533.023 1472.12 531.179 1470.94 527.491L1460.63 491.781H1398.52L1388.21 527.491C1387.03 531.179 1383.93 533.023 1378.9 533.023C1374.88 533.023 1371.11 531.934 1367.59 529.754C1364.07 527.575 1362.31 524.976 1362.31 521.958ZM1404.3 470.405H1454.6L1429.45 384.147L1404.3 470.405Z" fill="white"/>
<path d="M1640.57 478.452V405.272C1640.57 385.991 1645.69 371.825 1655.91 362.771C1666.31 353.718 1679.8 349.192 1696.4 349.192C1713.5 349.192 1727.25 353.467 1737.65 362.017C1748.21 370.4 1753.49 381.297 1753.49 394.709C1753.49 400.074 1752.48 403.763 1750.47 405.775C1748.46 407.619 1745.02 408.541 1740.16 408.541C1731.44 408.541 1727 405.607 1726.83 399.739C1725.83 381.8 1716.02 372.831 1697.41 372.831C1677.29 372.831 1667.23 383.644 1667.23 405.272V478.452C1667.23 500.08 1677.46 510.893 1697.91 510.893C1703.95 510.893 1708.98 510.055 1713 508.378C1717.02 506.534 1719.87 503.936 1721.55 500.582C1723.39 497.229 1724.65 494.295 1725.32 491.781C1725.99 489.266 1726.5 486.164 1726.83 482.476C1727.33 476.608 1731.69 473.674 1739.91 473.674C1744.77 473.674 1748.21 474.68 1750.22 476.692C1752.4 478.536 1753.49 482.141 1753.49 487.506C1753.49 501.421 1748.21 512.737 1737.65 521.455C1727.08 530.173 1713.25 534.532 1696.15 534.532C1679.55 534.532 1666.14 530.006 1655.91 520.952C1645.69 511.899 1640.57 497.732 1640.57 478.452Z" fill="white"/>
<path d="M1904.13 524.222V357.993C1904.13 355.311 1905.3 353.215 1907.65 351.706C1910 350.03 1912.76 349.192 1915.95 349.192H2005.48C2008.33 349.192 2010.51 350.365 2012.01 352.712C2013.52 355.059 2014.28 357.742 2014.28 360.76C2014.28 364.113 2013.44 366.963 2011.76 369.31C2010.25 371.657 2008.16 372.831 2005.48 372.831H1930.79V430.42H1969.51C1972.2 430.42 1974.29 431.509 1975.8 433.689C1977.48 435.701 1978.32 438.215 1978.32 441.233C1978.32 443.916 1977.56 446.347 1976.05 448.526C1974.54 450.538 1972.36 451.544 1969.51 451.544H1930.79V509.384H2005.48C2008.16 509.384 2010.25 510.558 2011.76 512.905C2013.44 515.252 2014.28 518.102 2014.28 521.455C2014.28 524.473 2013.52 527.156 2012.01 529.503C2010.51 531.85 2008.33 533.023 2005.48 533.023H1915.95C1912.76 533.023 1910 532.269 1907.65 530.76C1905.3 529.084 1904.13 526.904 1904.13 524.222Z" fill="white"/>
</svg>
